<?xml version="1.0" encoding="UTF-8"?>
<svg width="16px" height="16px" viewBox="0 0 16 16" version="1.1" xmlns="http://www.w3.org/2000/svg" xmlns:xlink="http://www.w3.org/1999/xlink">
    <title>Rynse-favicon (1)</title>
    <g id="Page-1" stroke="none" stroke-width="1" fill="none" fillRule="evenodd">
        <g id="Rynse-favicon-(1)">
            <circle id="Oval" fill="#5A47FF" fillRule="nonzero" cx="8" cy="8" r="8"></circle>
            <path d="M3.00012,6.28185 C2.98708,8.26167 4.03205,9.61078 6.23285,9.62596 L10.6198,9.65969 L10.6296,8.17904 L6.24263,8.147 C4.87162,8.13519 4.3206,7.38306 4.32712,6.29197 C4.33364,5.20087 4.89607,4.45549 6.26872,4.4656 L6.40402,4.4656 L6.40402,3.00013 L6.29317,3.00013 C4.0777,2.98495 3.01316,4.30202 3.00012,6.28185 Z M6.40408,10.7948 L6.40408,12.2755 L9.76723,12.2435 C11.9664,12.2283 13.013,10.864 13,8.89934 C12.9869,6.93469 11.9224,5.60244 9.70691,5.61762 L6.40408,5.61762 L6.40408,7.0831 L9.733,7.0831 C11.104,7.07298 11.6681,7.79475 11.6746,8.90271 C11.6811,10.0107 11.1285,10.7476 9.75745,10.7577 L6.40408,10.7948 Z" id="Shape" fill="#FFFFFF"></path>
        </g>
    </g>
</svg>