<svg id="Layer_1" data-name="Layer 1" xmlns="http://www.w3.org/2000/svg" xmlns:xlink="http://www.w3.org/1999/xlink" viewBox="0 0 393.77 80.14"><defs><style>.cls-1{fill:url(#linear-gradient);}.cls-2{fill:#2B349B;}.cls-3{clip-path:url(#clip-path);}.cls-4{mask:url(#mask);}</style><linearGradient id="linear-gradient" x1="-289.22" y1="470.82" x2="-288.3" y2="470.82" gradientTransform="translate(21844.02 -35277.1) scale(75.21)" gradientUnits="userSpaceOnUse"><stop offset="0" stop-color="#fff"/><stop offset="1" stop-color="#fff"/></linearGradient><clipPath id="clip-path" transform="translate(-90.66 -104.24)"><path class="cls-2" d="M114.05,166.18v-10l23.18-.21c9.53,0,13.21-5,13.21-12.35s-3.9-12.13-13.43-12.13h-23v-9.75h22.74c15.38-.21,22.75,8.67,22.75,21.88s-7.15,22.09-22.31,22.31ZM113,148.42c-15.16,0-22.31-9.09-22.31-22.31S98,104.24,113.4,104.24h.87V114h-.87c-9.53,0-13.43,5-13.43,12.12s3.9,12.35,13.22,12.35l30.32.22v10Z"/></clipPath><mask id="mask" x="0" y="0" width="68.88" height="61.95" maskUnits="userSpaceOnUse"><g transform="translate(-90.66 -104.24)"><rect class="cls-1" x="90.66" y="104.24" width="68.88" height="61.95"/></g></mask></defs><path class="cls-2" d="M186.83,130.88c0-15.16,8.88-22.53,22.09-22.53S231,115.72,231,130.88v.43h-9.74v-.65c0-9.53-5-13.21-12.35-13.21s-12.13,3.9-12.13,13.43V161.2h-10Z" transform="translate(-90.66 -104.24)"/><path class="cls-2" d="M243.58,167.27h10c2.38,5.85,7.58,8.45,14.94,8.45,9.53,0,15.6-4.55,15.6-16.25v-7.36a18.66,18.66,0,0,1-17.11,10c-12.78,0-23.83-8-23.83-26V109.65h10v26.21c0,11,6.06,16.68,15.59,16.68s15.6-5.85,15.6-16.68V109.65h10v49.6c-.44,18-11.7,25.13-26,25.13-11.92,0-21.66-5.63-24.69-17.11" transform="translate(-90.66 -104.24)"/><path class="cls-2" d="M310.5,134.35c0-17.12,10.62-26,25.78-26s25.34,8.67,25.34,26V161h-10V134.35c0-11-6.07-16.9-15.6-16.9s-15.59,5.63-15.59,16.9V161h-10V134.35Z" transform="translate(-90.66 -104.24)"/><path class="cls-2" d="M375.05,146.26h10c.22,4.33,4.12,7.36,11.26,7.36,7.59,0,11.27-3.25,11.27-7.36,0-5-5.42-5.42-11.92-6.28-8.88-1.09-19.71-2.82-19.71-14.51,0-10.18,7.8-16.9,20.15-16.9S416,115.5,416.2,124.38h-9.75c-.21-4.11-3.89-7.15-10-7.15s-10.4,3-10.4,7.15c0,5,5.42,5.42,11.7,6.28,8.88,1.09,19.93,2.82,19.93,14.51,0,10.4-8.45,17.12-21.23,17.12s-21-6.72-21.44-16" transform="translate(-90.66 -104.24)"/><path class="cls-2" d="M473.81,130.23c-1.94-8.23-8.66-12.56-17.11-12.56s-14.94,4.55-16.89,12.56Zm-44.61,5.2c0-15.6,11.48-27.08,27.72-27.08s27.51,11.48,27.51,27.08v3.46H439.81c1.52,9.1,8.23,14.3,17.33,14.3,6.71,0,11.26-2.17,14.29-6.5h10.83c-3.9,9.53-13.21,15.6-25.34,15.6-16.24.21-27.72-11.27-27.72-26.86" transform="translate(-90.66 -104.24)"/><path class="cls-2" d="M114.05,166.18v-10l23.18-.21c9.53,0,13.21-5,13.21-12.35s-3.9-12.13-13.43-12.13h-23v-9.75h22.74c15.38-.21,22.75,8.67,22.75,21.88s-7.15,22.09-22.31,22.31ZM113,148.42c-15.16,0-22.31-9.09-22.31-22.31S98,104.24,113.4,104.24h.87V114h-.87c-9.53,0-13.43,5-13.43,12.12s3.9,12.35,13.22,12.35l30.32.22v10Z" transform="translate(-90.66 -104.24)"/><g class="cls-3"><g class="cls-4"><rect class="cls-2" width="68.88" height="61.95"/></g></g></svg>
